<svg width="92" height="92" viewBox="0 0 92 92" fill="none" xmlns="http://www.w3.org/2000/svg">
<rect width="7.14742" height="4.00893" transform="matrix(-0.979203 -0.202885 -0.213052 0.977041 73.613 78.8687)" fill="#480CA7" fill-opacity="0.65"/>
<rect width="8.14602" height="1.79601" transform="matrix(-0.494321 -0.869279 -0.879786 0.475369 53.1467 7.08118)" fill="#F54721" fill-opacity="0.45"/>
<rect width="4.73158" height="2.95713" transform="matrix(-0.0536867 0.998558 0.998698 0.051019 11.7211 18.298)" fill="#FFED36" fill-opacity="0.35"/>
<rect width="1.39923" height="2.88777" transform="matrix(-0.967542 0.252711 0.265053 0.964234 19.776 18.298)" fill="#480CA7" fill-opacity="0.65"/>
<rect width="4.73428" height="4.10554" transform="matrix(-0.160381 -0.987055 -0.988291 0.152581 4.81677 13.8112)" fill="#480CA7" fill-opacity="0.85"/>
<rect width="3.64846" height="2.92673" transform="matrix(0.652396 0.757878 0.774053 -0.63312 66.9553 19.4196)" fill="#FF21FB" fill-opacity="0.9"/>
<rect width="2.54553" height="4.01551" transform="matrix(-0.948025 0.318195 0.333071 0.942902 40.4889 49.705)" fill="#4BC8EF" fill-opacity="0.35"/>
<circle r="1" transform="matrix(-1 0 0 1 31 51)" fill="#FF21FB" fill-opacity="0.9"/>
<circle r="0.5" transform="matrix(-1 0 0 1 3.5 77.5)" fill="#FFED36" fill-opacity="0.6"/>
<circle r="0.5" transform="matrix(-1 0 0 1 54.5 13.5)" fill="#C9FCBE" fill-opacity="0.65"/>
<circle r="1" transform="matrix(-1 0 0 1 80 62)" fill="#F54721" fill-opacity="0.85"/>
<circle r="1" transform="matrix(-1 0 0 1 68 91)" fill="#4BC8EF" fill-opacity="0.75"/>
<circle r="1.5" transform="matrix(-1 0 0 1 37.5 34.5)" fill="#F54721" fill-opacity="0.65"/>
<ellipse rx="0.5" ry="1" transform="matrix(-1 0 0 1 16.5 48)" fill="#DCBCFA" fill-opacity="0.9"/>
<ellipse rx="0.5" ry="1" transform="matrix(-1 0 0 1 51.5 29)" fill="#F62584"/>
<circle r="1" transform="matrix(-1 0 0 1 84 77)" fill="#755FFE" fill-opacity="0.85"/>
<path d="M20.9476 21.7564L21.0642 19.5862L18.8378 19.4724L18.7211 21.6427L20.9476 21.7564Z" fill="#F62584"/>
<path d="M10.7297 56.5709L9.88311 57.3678L10.399 58.3989L11.5645 58.2392L11.7688 57.1094L10.7297 56.5709Z" fill="#FFED36" fill-opacity="0.35"/>
<path d="M25.3473 48.2191L26.9957 46.8708L26.622 44.8051L24.6 44.0877L22.9516 45.436L23.3252 47.5017L25.3473 48.2191Z" fill="#03A3F5" fill-opacity="0.6"/>
<path d="M68.1616 40.7153L67.9037 42.5042L69.5694 43.2961L70.8568 41.9966L69.9867 40.4016L68.1616 40.7153Z" fill="#FFED36" fill-opacity="0.9"/>
<path d="M8.5684 81.2782L6.73698 78.9092L4.30662 80.6944L6.13803 83.0634L8.5684 81.2782Z" fill="#FFED36" fill-opacity="0.45"/>
<path d="M77.9492 83.0241L75.2688 82.5162L76.1578 85.0328L77.9492 83.0241Z" fill="#DCBCFA"/>
<path d="M15.0793 23.7966L13.0494 26.8435L16.7713 27.0337L15.0793 23.7966Z" fill="#03A3F5"/>
<path d="M73.5289 86.1243L73.0547 88.7455L75.6206 87.8352L73.5289 86.1243Z" fill="#4BC8EF" fill-opacity="0.75"/>
<path d="M69.1467 42.5637L68.0733 42.3426L68.2652 41.2897L67.5321 42.0853L66.6926 41.3969L67.0329 42.4135L66.0015 42.7781L67.0749 42.9991L66.883 44.052L67.6161 43.2564L68.4557 43.9448L68.1153 42.9282L69.1467 42.5637Z" fill="#FF21FB" fill-opacity="0.85"/>
<path d="M86.9647 46.1483L88.4587 46.2483L88.4046 47.7071L89.2404 46.4959L90.5094 47.271L89.8512 45.9598L91.1743 45.2761L89.6803 45.1761L89.7345 43.7173L88.8986 44.9285L87.6297 44.1534L88.2878 45.4646L86.9647 46.1483Z" fill="#9AF5FC" fill-opacity="0.45"/>
<path d="M78.0274 46.0924L77.1954 45.2134L77.3384 44.0255L76.4366 44.8365L75.218 44.6971L76.05 45.5761L75.907 46.764L76.8088 45.953L78.0274 46.0924Z" fill="#FFED36" fill-opacity="0.85"/>
<path d="M72.639 90.4883L73.3134 90.7539L73.2627 91.4611L73.7302 90.918L74.4046 91.1836L74.0192 90.5823L74.4867 90.0392L73.781 90.2107L73.3955 89.6095L73.3448 90.3167L72.639 90.4883Z" fill="#BA3E03" fill-opacity="0.85"/>
</svg>
